<?xml version="1.0" encoding="UTF-8"?>
<svg id="Calque_1" data-name="Calque 1" xmlns="http://www.w3.org/2000/svg" viewBox="0 0 1001 336">
  <defs>
    <style>
      .cls-1 {
        fill: #a600ff;
        stroke-width: 0px;
      }
    </style>
  </defs>
  <path class="cls-1" d="M640.02,196.23l-27.94-6.27c-.55,1.73-1.27,3.52-2.15,5.38-.89,1.86-2.1,3.55-3.65,5.06-1.55,1.52-3.53,2.77-5.94,3.74-2.41.98-5.41,1.45-9.01,1.41-7.33-.07-13.34-2.59-18.03-7.57-3.86-4.09-6.08-10.21-6.7-18.34l72.77.18c.76-9.86.18-18.63-1.75-26.32-1.93-7.68-4.96-14.21-9.11-19.59-4.15-5.37-9.44-9.46-15.88-12.25-6.44-2.79-13.93-4.24-22.46-4.32-8.4-.08-15.98,1.25-22.74,3.98-6.76,2.73-12.47,6.65-17.11,11.74-4.65,5.09-8.24,11.16-10.78,18.2-2.54,7.04-3.84,14.76-3.92,23.16-.08,8.67,1.11,16.35,3.58,23.04,2.47,6.69,6.11,12.33,10.94,16.91,4.82,4.58,10.69,8.07,17.6,10.47,6.91,2.4,14.77,3.64,23.57,3.73,7.6.07,14.17-.63,19.72-2.11,5.55-1.48,10.3-3.67,14.26-6.56,3.96-2.89,7.13-6.33,9.5-10.31,2.37-3.98,4.11-8.43,5.23-13.35ZM578.01,145.63c3.56-2.5,7.67-3.73,12.34-3.68,3.87.04,7.46,1.04,10.77,3,3.31,1.97,5.82,5.06,7.51,9.27.98,2.45,1.5,5.34,1.57,8.62h-42.57c.5-2.28,1.16-4.38,1.98-6.3,2.05-4.78,4.85-8.42,8.41-10.92Z"/>
  <path class="cls-1" d="M326.83,235.78c-6.56-9.58-11.33-20.61-13.99-32.46-.04-.19-.08-.37-.12-.56-3.4-15.27-2.89-28.35-1.87-37.06-8.93,21.89-19,45.19-39.04,57.74-9.02,5.65-19.56,8.67-30.21,9.19-1.48.08-2.95.1-4.43.08-2.48-.04-5-.23-7.49-.59-8.23-1.2-16.19-4.3-21.89-10.23-2.21-2.3-3.98-4.91-5.34-7.73-4.14-8.57-4.55-19.08-2.56-28.58.61-2.91,1.46-5.82,2.56-8.63,3.82-9.8,10.59-18.47,20.22-22.36,7.3-2.96,16.5-3.51,20.85-10.09,4.46-6.75-.65-17.47-8.71-18.25-8.78-.85-15.26,7.7-19.8,15.26-4.23,7.05-8.41,14.12-12.56,21.21-3.36,5.74-6.69,11.5-10,17.28-7.99,13.94-15.82,27.96-23.5,42.07-1.49,2.74-3.14,5.64-5.92,7.05-2.25,1.14-4.9,1.12-7.42,1.06-8.9-.18-17.79-.37-26.69-.56,18.89-34.56,37.77-69.11,56.66-103.67,2.11-3.85,4.35-8.16,6.87-12.43.33-.56.66-1.12,1-1.68,2.66-4.38,5.61-8.64,9-12.29,3.01-3.26,6.37-6.01,10.17-7.88,13.91-6.87,31.66-7.25,45.69-.65,14.27,6.72,24.97,21.03,26.29,36.75.68,8.12-1.3,16.42-5.35,23.48-3.78,6.61-9.35,12.14-16.23,15.44-8.23,3.95-17.76,4.75-25.81,9.07-8.05,4.32-14.35,14.69-9.6,22.49,3.3,5.4,10.77,7.1,16.85,5.33,6.08-1.76,10.98-6.25,15.16-11.01,9.34-10.64,16.09-23.02,22.25-35.82,8.84-18.35,16.47-37.55,28.76-53.7,4.63-6.08,11.18-12.18,18.76-11.2,5.87.76,10.46,5.81,12.46,11.39,1.99,5.57,1.88,11.65,1.75,17.57-.2,8.79-.4,17.59-.6,26.39v.07c-.14,6.35-.29,12.71-.43,19.06-.39,17.7.48,36.7,9.47,52.62,9.36,16.59,25.19,25.15,44.05,25.81,10.32.36,21.49-1.63,29.63-8.41,9.78-8.15,11.75-21.78,13.14-33.71-2.86,11.33-15.49,17.22-27.05,18.99-.54.08-1.09.16-1.64.23s-1.11.13-1.66.19c-.64.06-1.3.12-1.95.16-.46.03-.93.05-1.39.07-.23.01-.46.02-.69.02-.24.01-.47.02-.71.02-.06,0-.11.01-.17,0-.69.01-1.39.01-2.08-.01-8.72-.24-17.27-2.72-23.16-8.92-5-5.26-7.37-12.47-8.96-19.55-2.43-10.82-3.37-21.86-3.56-32.95-.19-11.65.45-23.37,1.11-34.99,10.55-.01,21.11-.02,31.66-.03-.87,11.64-.86,23.35,0,34.99.26,3.46.59,6.91,1,10.36.28,2.37.6,4.74.95,7.11,1.16,7.72,4.33,17.03,12.05,18.1.49.07.97.1,1.45.1,7.7-.05,12.74-9.24,14.77-17.09,1.57-6.06,2.73-12.22,3.46-18.44,1.38-11.62,1.28-23.41-.3-35h32.51c-.66,11.56-.34,23.29-.05,35,.63,24.5,1.18,48.92-7.38,71.59-4.02,10.65-11.29,18.31-20.62,24.81-18.24,12.71-39.93,12.36-50.89,11.22-24.64-2.56-45.71-13.84-58.73-32.84Z"/>
  <rect class="cls-1" x="489.43" y="85.75" width="31.6" height="144"/>
  <path class="cls-1" d="M677,190c-4.24,1.12-8.53,2.28-12.87,3.5-4.1,1.15-8.14,2.32-12.12,3.5.27,2.08.81,4.87,2,8,1.84,4.85,4.27,8.06,5.05,9.04,3.71,4.7,7.75,7.16,10.5,8.7,4.27,2.4,9.27,4.24,15,5.5,5.73,1.27,12.13,1.9,19.2,1.9,10.53,0,19.43-1.36,26.7-4.1,2.46-.92,4.73-1.99,6.79-3.2,4.01-2.34,7.25-5.2,9.71-8.6,1.16-1.59,2.14-3.27,2.94-5.05,1.77-3.96,2.66-8.37,2.66-13.25s-.88-9.38-2.66-12.88c-.32-.63-.66-1.24-1.04-1.82-2.47-3.8-5.8-6.86-10-9.2-4.2-2.33-8.87-4.2-14-5.6-5.13-1.4-10.3-2.63-15.5-3.7-4.93-1.06-9.2-2.06-12.8-3-3.6-.93-6.37-2.1-8.3-3.5-.38-.27-.72-.56-1.02-.86-.09-.09-.17-.17-.25-.26-.12-.13-.23-.26-.33-.39-.06-.07-.11-.14-.16-.22-.1-.13-.19-.26-.27-.39-.05-.08-.1-.17-.14-.25-.06-.11-.12-.23-.17-.34-.05-.1-.09-.19-.13-.29-.04-.09-.07-.18-.1-.27-.04-.13-.08-.24-.11-.36-.05-.18-.09-.36-.12-.54-.04-.23-.07-.46-.09-.7-.01-.14-.01-.28-.01-.43,0-2.66,1.43-4.8,4.3-6.4,2.87-1.6,6.9-2.4,12.1-2.4,4.27,0,7.97.57,11.1,1.7,3.13,1.14,5.73,2.77,7.8,4.9,2.07,2.14,3.43,4.67,4.1,7.6l16.14-5.75,9-3.21.66-.24c-.2-.68-.42-1.36-.66-2.02-1.81-5.01-4.69-9.37-8.64-13.08-.12-.11-.24-.22-.36-.33-.26-.24-.53-.48-.8-.71-.23-.2-.46-.39-.69-.59-.2-.17-.4-.34-.61-.49-.2-.16-.4-.32-.61-.48-.27-.2-.53-.39-.78-.58-.34-.25-.69-.5-1.05-.74-.27-.18-.54-.36-.82-.55-.59-.37-1.19-.74-1.81-1.1-.27-.16-.54-.31-.82-.47-.82-.45-1.66-.88-2.52-1.29-.36-.18-.73-.35-1.1-.51-.75-.34-1.5-.66-2.28-.96-.8-.32-1.62-.62-2.45-.9-6.67-2.26-14.4-3.4-23.2-3.4-9.87,0-18.23,1.4-25.1,4.2-6.87,2.8-12.03,6.64-15.5,11.5-3.47,4.87-5.2,10.57-5.2,17.1,0,.39.01.78.02,1.16,0,.21.01.42.02.63,0,.03,0,.05,0,.08,0,.31.02.62.05.92.03.45.07.9.12,1.34.04.37.08.73.14,1.09.03.27.07.54.12.8.03.19.06.38.1.57.14.75.31,1.48.5,2.18.05.2.11.39.17.58.09.3.18.6.28.89.06.18.12.36.19.54,0,.01.01.02.01.03.07.21.15.42.23.62.11.27.23.55.35.82.21.48.44.94.68,1.4.12.23.25.46.38.69.03.04.05.09.08.13.08.15.17.28.26.42.12.21.25.41.39.61.2.29.4.58.61.87.21.29.43.58.65.87.03.03.05.07.09.1.17.23.36.46.55.68.22.27.45.53.68.79.05.06.1.11.15.16.03.04.06.07.1.11.21.23.42.45.64.67.29.3.59.59.89.87.04.03.07.07.1.1.3.27.61.55.92.81.26.22.53.44.8.66.07.06.14.11.22.17.28.22.56.43.85.64.14.1.28.2.42.3.35.25.7.48,1.06.72.32.2.65.41.98.6.39.24.79.46,1.19.68,4.53,2.47,9.4,4.4,14.6,5.8,5.2,1.4,10.33,2.64,15.4,3.7,4.93.94,9.07,1.9,12.4,2.9s5.83,2.14,7.5,3.4c1.67,1.27,2.5,2.97,2.5,5.1,0,.18,0,.36-.02.53,0,.11-.01.22-.03.32-.01.13-.03.26-.05.39,0,.05-.02.11-.03.17-.02.12-.04.24-.08.36-.03.15-.07.29-.12.44-.04.14-.09.28-.15.42-.1.28-.23.56-.38.82-.23.4-.51.79-.83,1.15-.1.12-.21.24-.33.35-.23.23-.48.45-.75.66-.11.09-.22.17-.34.25-.14.1-.28.2-.43.3-.3.19-.62.37-.96.54-10.48,5.24-26.9,4.69-35.15-4.51-1.56-1.74-2.83-3.7-3.96-5.73-.18-.33-2.13-4.45-2.34-4.4Z"/>
  <path class="cls-1" d="M789.87,189.66c-4.24,1.12-8.53,2.28-12.87,3.5-4.1,1.15-8.14,2.32-12.12,3.5.27,2.08.81,4.87,2,8,1.84,4.85,4.27,8.06,5.05,9.04,3.71,4.7,7.75,7.16,10.5,8.7,4.27,2.4,9.27,4.24,15,5.5,5.73,1.27,12.13,1.9,19.2,1.9,10.53,0,19.43-1.36,26.7-4.1,2.46-.92,4.73-1.99,6.79-3.2,4.01-2.34,7.25-5.2,9.71-8.6,1.16-1.59,2.14-3.27,2.94-5.05,1.77-3.96,2.66-8.37,2.66-13.25s-.88-9.38-2.66-12.88c-.32-.63-.66-1.24-1.04-1.82-2.47-3.8-5.8-6.86-10-9.2-4.2-2.33-8.87-4.2-14-5.6-5.13-1.4-10.3-2.63-15.5-3.7-4.93-1.06-9.2-2.06-12.8-3-3.6-.93-6.37-2.1-8.3-3.5-.38-.27-.72-.56-1.02-.86-.09-.09-.17-.17-.25-.26-.12-.13-.23-.26-.33-.39-.06-.07-.11-.14-.16-.22-.1-.13-.19-.26-.27-.39-.05-.08-.1-.17-.14-.25-.06-.11-.12-.23-.17-.34-.05-.1-.09-.19-.13-.29-.04-.09-.07-.18-.1-.27-.04-.13-.08-.24-.11-.36-.05-.18-.09-.36-.12-.54-.04-.23-.07-.46-.09-.7-.01-.14-.01-.28-.01-.43,0-2.66,1.43-4.8,4.3-6.4,2.87-1.6,6.9-2.4,12.1-2.4,4.27,0,7.97.57,11.1,1.7,3.13,1.14,5.73,2.77,7.8,4.9,2.07,2.14,3.43,4.67,4.1,7.6l16.14-5.75,9-3.21.66-.24c-.2-.68-.42-1.36-.66-2.02-1.81-5.01-4.69-9.37-8.64-13.08-.12-.11-.24-.22-.36-.33-.26-.24-.53-.48-.8-.71-.23-.2-.46-.39-.69-.59-.2-.17-.4-.34-.61-.49-.2-.16-.4-.32-.61-.48-.27-.2-.53-.39-.78-.58-.34-.25-.69-.5-1.05-.74-.27-.18-.54-.36-.82-.55-.59-.37-1.19-.74-1.81-1.1-.27-.16-.54-.31-.82-.47-.82-.45-1.66-.88-2.52-1.29-.36-.18-.73-.35-1.1-.51-.75-.34-1.5-.66-2.28-.96-.8-.32-1.62-.62-2.45-.9-6.67-2.26-14.4-3.4-23.2-3.4-9.87,0-18.23,1.4-25.1,4.2-6.87,2.8-12.03,6.64-15.5,11.5-3.47,4.87-5.2,10.57-5.2,17.1,0,.39.01.78.02,1.16,0,.21.01.42.02.63,0,.03,0,.05,0,.08,0,.31.02.62.05.92.03.45.07.9.12,1.34.04.37.08.73.14,1.09.03.27.07.54.12.8.03.19.06.38.1.57.14.75.31,1.48.5,2.18.05.2.11.39.17.58.09.3.18.6.28.89.06.18.12.36.19.54,0,.01.01.02.01.03.07.21.15.42.23.62.11.27.23.55.35.82.21.48.44.94.68,1.4.12.23.25.46.38.69.03.04.05.09.08.13.08.15.17.28.26.42.12.21.25.41.39.61.2.29.4.58.61.87.21.29.43.58.65.87.03.03.05.07.09.1.17.23.36.46.55.68.22.27.45.53.68.79.05.06.1.11.15.16.03.04.06.07.1.11.21.23.42.45.64.67.29.3.59.59.89.87.04.03.07.07.1.1.3.27.61.55.92.81.26.22.53.44.8.66.07.06.14.11.22.17.28.22.56.43.85.64.14.1.28.2.42.3.35.25.7.48,1.06.72.32.2.65.41.98.6.39.24.79.46,1.19.68,4.53,2.47,9.4,4.4,14.6,5.8,5.2,1.4,10.33,2.64,15.4,3.7,4.93.94,9.07,1.9,12.4,2.9s5.83,2.14,7.5,3.4c1.67,1.27,2.5,2.97,2.5,5.1,0,.18,0,.36-.02.53,0,.11-.01.22-.03.32-.01.13-.03.26-.05.39,0,.05-.02.11-.03.17-.02.12-.04.24-.08.36-.03.15-.07.29-.12.44-.04.14-.09.28-.15.42-.1.28-.23.56-.38.82-.23.4-.51.79-.83,1.15-.1.12-.21.24-.33.35-.23.23-.48.45-.75.66-.11.09-.22.17-.34.25-.14.1-.28.2-.43.3-.3.19-.62.37-.96.54-10.48,5.24-26.9,4.69-35.15-4.51-1.56-1.74-2.83-3.7-3.96-5.73-.18-.33-2.13-4.45-2.34-4.4Z"/>
</svg>